<mxfile host="app.diagrams.net" agent="Mozilla/5.0 (Windows NT 10.0; Win64; x64) AppleWebKit/537.36 (KHTML, like Gecko) Chrome/127.0.0.0 Safari/537.36 Edg/127.0.0.0" version="24.7.5">
  <diagram name="Page-1" id="c7558073-3199-34d8-9f00-42111426c3f3">
    <mxGraphModel dx="1999" dy="1798" grid="1" gridSize="10" guides="1" tooltips="1" connect="1" arrows="1" fold="1" page="1" pageScale="1" pageWidth="826" pageHeight="1169" background="none" math="0" shadow="0">
      <root>
        <mxCell id="0" />
        <mxCell id="1" parent="0" />
        <mxCell id="75hqEZYQXCR5T-KK69s9-33" value="" style="whiteSpace=wrap;html=1;rounded=1;shadow=0;strokeWidth=2;fontSize=20;align=center;fillColor=#e1d5e7;strokeColor=#FFFFFF;" vertex="1" parent="1">
          <mxGeometry x="280" y="-750" width="930" height="430" as="geometry" />
        </mxCell>
        <mxCell id="75hqEZYQXCR5T-KK69s9-6" value="" style="whiteSpace=wrap;html=1;rounded=1;shadow=0;strokeWidth=2;fontSize=20;align=center;fillColor=#FED217;strokeColor=#FFFFFF;" vertex="1" parent="1">
          <mxGeometry x="820" y="-320" width="400" height="600" as="geometry" />
        </mxCell>
        <mxCell id="ydPv3QB8kfn3ZAmTUhdd-136" value="" style="whiteSpace=wrap;html=1;rounded=1;shadow=0;strokeWidth=2;fontSize=20;align=center;fillColor=#FED217;strokeColor=#FFFFFF;" parent="1" vertex="1">
          <mxGeometry x="270" y="-320" width="400" height="340" as="geometry" />
        </mxCell>
        <mxCell id="ydPv3QB8kfn3ZAmTUhdd-146" value="" style="whiteSpace=wrap;html=1;rounded=1;shadow=0;strokeWidth=2;fontSize=20;align=center;fillColor=#cdeb8b;strokeColor=#ffffff;" parent="1" vertex="1">
          <mxGeometry x="270" y="20" width="400" height="410" as="geometry" />
        </mxCell>
        <mxCell id="ydPv3QB8kfn3ZAmTUhdd-164" value="&amp;nbsp; &amp;nbsp; 请求信息&lt;div&gt;&amp;nbsp; &amp;nbsp; 数据库信息&lt;/div&gt;&lt;div&gt;&amp;nbsp; &amp;nbsp; 采集记录&lt;/div&gt;&lt;div&gt;&amp;nbsp; &amp;nbsp; 采集来源&lt;/div&gt;&lt;div&gt;&amp;nbsp; &amp;nbsp;&lt;b&gt;&amp;nbsp; &amp;nbsp; &amp;nbsp; &amp;nbsp;...&lt;/b&gt;&lt;/div&gt;" style="shape=cylinder;whiteSpace=wrap;html=1;boundedLbl=1;backgroundOutline=1;fillColor=#b0e3e6;strokeColor=#0e8088;align=left;strokeWidth=4;" parent="1" vertex="1">
          <mxGeometry x="630" y="-57.5" width="240" height="130" as="geometry" />
        </mxCell>
        <mxCell id="ydPv3QB8kfn3ZAmTUhdd-111" style="edgeStyle=orthogonalEdgeStyle;rounded=1;orthogonalLoop=1;jettySize=auto;html=1;exitX=0.145;exitY=0.855;exitDx=0;exitDy=0;exitPerimeter=0;entryX=0.5;entryY=0;entryDx=0;entryDy=0;curved=0;" parent="1" source="ydPv3QB8kfn3ZAmTUhdd-96" target="ydPv3QB8kfn3ZAmTUhdd-107" edge="1">
          <mxGeometry relative="1" as="geometry" />
        </mxCell>
        <mxCell id="ydPv3QB8kfn3ZAmTUhdd-112" style="edgeStyle=orthogonalEdgeStyle;rounded=0;orthogonalLoop=1;jettySize=auto;html=1;exitX=0.5;exitY=1;exitDx=0;exitDy=0;exitPerimeter=0;entryX=0.5;entryY=0;entryDx=0;entryDy=0;" parent="1" source="ydPv3QB8kfn3ZAmTUhdd-96" target="ydPv3QB8kfn3ZAmTUhdd-108" edge="1">
          <mxGeometry relative="1" as="geometry" />
        </mxCell>
        <mxCell id="ydPv3QB8kfn3ZAmTUhdd-113" style="edgeStyle=orthogonalEdgeStyle;rounded=1;orthogonalLoop=1;jettySize=auto;html=1;exitX=0.855;exitY=0.855;exitDx=0;exitDy=0;exitPerimeter=0;curved=0;" parent="1" source="ydPv3QB8kfn3ZAmTUhdd-96" target="ydPv3QB8kfn3ZAmTUhdd-109" edge="1">
          <mxGeometry relative="1" as="geometry" />
        </mxCell>
        <mxCell id="75hqEZYQXCR5T-KK69s9-36" style="edgeStyle=orthogonalEdgeStyle;rounded=1;orthogonalLoop=1;jettySize=auto;html=1;exitX=0.145;exitY=0.855;exitDx=0;exitDy=0;exitPerimeter=0;curved=0;" edge="1" parent="1" source="ydPv3QB8kfn3ZAmTUhdd-96" target="75hqEZYQXCR5T-KK69s9-35">
          <mxGeometry relative="1" as="geometry" />
        </mxCell>
        <mxCell id="ydPv3QB8kfn3ZAmTUhdd-96" value="&lt;font style=&quot;font-size: 19px;&quot;&gt;开始&lt;/font&gt;" style="strokeWidth=2;html=1;shape=mxgraph.flowchart.start_1;whiteSpace=wrap;fillColor=#f8cecc;strokeColor=#b85450;" parent="1" vertex="1">
          <mxGeometry x="660" y="-740" width="100" height="60" as="geometry" />
        </mxCell>
        <mxCell id="ydPv3QB8kfn3ZAmTUhdd-116" style="edgeStyle=orthogonalEdgeStyle;rounded=1;orthogonalLoop=1;jettySize=auto;html=1;exitX=0.5;exitY=1;exitDx=0;exitDy=0;entryX=0;entryY=0.5;entryDx=0;entryDy=0;curved=0;" parent="1" source="ydPv3QB8kfn3ZAmTUhdd-107" target="ydPv3QB8kfn3ZAmTUhdd-115" edge="1">
          <mxGeometry relative="1" as="geometry" />
        </mxCell>
        <mxCell id="ydPv3QB8kfn3ZAmTUhdd-107" value="文件上传" style="rounded=0;whiteSpace=wrap;html=1;fillColor=#ffe6cc;strokeColor=#d79b00;" parent="1" vertex="1">
          <mxGeometry x="520" y="-620" width="120" height="60" as="geometry" />
        </mxCell>
        <mxCell id="ydPv3QB8kfn3ZAmTUhdd-117" style="edgeStyle=orthogonalEdgeStyle;rounded=0;orthogonalLoop=1;jettySize=auto;html=1;exitX=0.5;exitY=1;exitDx=0;exitDy=0;entryX=0.5;entryY=0;entryDx=0;entryDy=0;" parent="1" source="ydPv3QB8kfn3ZAmTUhdd-108" target="ydPv3QB8kfn3ZAmTUhdd-115" edge="1">
          <mxGeometry relative="1" as="geometry" />
        </mxCell>
        <mxCell id="ydPv3QB8kfn3ZAmTUhdd-108" value="数据库连接" style="rounded=0;whiteSpace=wrap;html=1;fillColor=#fff2cc;strokeColor=#d6b656;" parent="1" vertex="1">
          <mxGeometry x="650" y="-620" width="120" height="60" as="geometry" />
        </mxCell>
        <mxCell id="ydPv3QB8kfn3ZAmTUhdd-118" style="edgeStyle=orthogonalEdgeStyle;rounded=1;orthogonalLoop=1;jettySize=auto;html=1;exitX=0.5;exitY=1;exitDx=0;exitDy=0;entryX=1;entryY=0.5;entryDx=0;entryDy=0;curved=0;" parent="1" source="ydPv3QB8kfn3ZAmTUhdd-109" target="ydPv3QB8kfn3ZAmTUhdd-115" edge="1">
          <mxGeometry relative="1" as="geometry" />
        </mxCell>
        <mxCell id="ydPv3QB8kfn3ZAmTUhdd-109" value="在线制表" style="rounded=0;whiteSpace=wrap;html=1;fillColor=#dae8fc;strokeColor=#6c8ebf;" parent="1" vertex="1">
          <mxGeometry x="780" y="-620" width="120" height="60" as="geometry" />
        </mxCell>
        <UserObject label="" tooltip="通过" id="ydPv3QB8kfn3ZAmTUhdd-120">
          <mxCell style="edgeStyle=orthogonalEdgeStyle;rounded=0;orthogonalLoop=1;jettySize=auto;html=1;exitX=0.5;exitY=1;exitDx=0;exitDy=0;" parent="1" edge="1">
            <mxGeometry relative="1" as="geometry">
              <mxPoint x="709.5" y="-480" as="sourcePoint" />
              <mxPoint x="709.5" y="-450" as="targetPoint" />
            </mxGeometry>
          </mxCell>
        </UserObject>
        <mxCell id="ydPv3QB8kfn3ZAmTUhdd-123" value="通过" style="edgeLabel;html=1;align=center;verticalAlign=middle;resizable=0;points=[];" parent="ydPv3QB8kfn3ZAmTUhdd-120" vertex="1" connectable="0">
          <mxGeometry x="0.2444" relative="1" as="geometry">
            <mxPoint x="-20" as="offset" />
          </mxGeometry>
        </mxCell>
        <mxCell id="ydPv3QB8kfn3ZAmTUhdd-115" value="校验名称" style="shape=rhombus;html=1;dashed=0;whiteSpace=wrap;perimeter=rhombusPerimeter;fillColor=#f8cecc;strokeColor=#b85450;" parent="1" vertex="1">
          <mxGeometry x="665" y="-530" width="90" height="50" as="geometry" />
        </mxCell>
        <mxCell id="ydPv3QB8kfn3ZAmTUhdd-131" style="edgeStyle=orthogonalEdgeStyle;rounded=1;orthogonalLoop=1;jettySize=auto;html=1;exitX=0;exitY=0.5;exitDx=0;exitDy=0;entryX=0.5;entryY=0;entryDx=0;entryDy=0;curved=0;" parent="1" source="ydPv3QB8kfn3ZAmTUhdd-119" target="ydPv3QB8kfn3ZAmTUhdd-129" edge="1">
          <mxGeometry relative="1" as="geometry" />
        </mxCell>
        <mxCell id="ydPv3QB8kfn3ZAmTUhdd-132" style="edgeStyle=orthogonalEdgeStyle;rounded=1;orthogonalLoop=1;jettySize=auto;html=1;exitX=1;exitY=0.5;exitDx=0;exitDy=0;entryX=0.5;entryY=0;entryDx=0;entryDy=0;curved=0;" parent="1" source="ydPv3QB8kfn3ZAmTUhdd-119" target="ydPv3QB8kfn3ZAmTUhdd-130" edge="1">
          <mxGeometry relative="1" as="geometry" />
        </mxCell>
        <mxCell id="ydPv3QB8kfn3ZAmTUhdd-119" value="创建采集记录" style="html=1;dashed=0;whiteSpace=wrap;fillColor=#dae8fc;strokeColor=#6c8ebf;" parent="1" vertex="1">
          <mxGeometry x="660" y="-450" width="100" height="50" as="geometry" />
        </mxCell>
        <mxCell id="ydPv3QB8kfn3ZAmTUhdd-127" style="edgeStyle=orthogonalEdgeStyle;rounded=1;orthogonalLoop=1;jettySize=auto;html=1;exitX=0.5;exitY=1;exitDx=0;exitDy=0;entryX=1;entryY=0.5;entryDx=0;entryDy=0;entryPerimeter=0;shadow=0;curved=0;" parent="1" source="ydPv3QB8kfn3ZAmTUhdd-115" target="ydPv3QB8kfn3ZAmTUhdd-96" edge="1">
          <mxGeometry relative="1" as="geometry">
            <Array as="points">
              <mxPoint x="710" y="-460" />
              <mxPoint x="970" y="-460" />
              <mxPoint x="970" y="-710" />
            </Array>
          </mxGeometry>
        </mxCell>
        <mxCell id="ydPv3QB8kfn3ZAmTUhdd-128" value="不通过" style="edgeLabel;html=1;align=center;verticalAlign=middle;resizable=0;points=[];" parent="ydPv3QB8kfn3ZAmTUhdd-127" vertex="1" connectable="0">
          <mxGeometry x="0.1036" y="1" relative="1" as="geometry">
            <mxPoint y="8" as="offset" />
          </mxGeometry>
        </mxCell>
        <mxCell id="ydPv3QB8kfn3ZAmTUhdd-138" style="edgeStyle=orthogonalEdgeStyle;rounded=0;orthogonalLoop=1;jettySize=auto;html=1;exitX=0.5;exitY=1;exitDx=0;exitDy=0;entryX=0.5;entryY=0;entryDx=0;entryDy=0;" parent="1" source="ydPv3QB8kfn3ZAmTUhdd-129" target="ydPv3QB8kfn3ZAmTUhdd-133" edge="1">
          <mxGeometry relative="1" as="geometry" />
        </mxCell>
        <mxCell id="ydPv3QB8kfn3ZAmTUhdd-129" value="手动汇聚" style="html=1;dashed=0;whiteSpace=wrap;fillColor=#f8cecc;strokeColor=#b85450;" parent="1" vertex="1">
          <mxGeometry x="420" y="-380" width="100" height="50" as="geometry" />
        </mxCell>
        <mxCell id="75hqEZYQXCR5T-KK69s9-8" style="edgeStyle=orthogonalEdgeStyle;rounded=0;orthogonalLoop=1;jettySize=auto;html=1;exitX=0.5;exitY=1;exitDx=0;exitDy=0;entryX=0.5;entryY=0;entryDx=0;entryDy=0;" edge="1" parent="1" source="ydPv3QB8kfn3ZAmTUhdd-130" target="75hqEZYQXCR5T-KK69s9-7">
          <mxGeometry relative="1" as="geometry" />
        </mxCell>
        <mxCell id="ydPv3QB8kfn3ZAmTUhdd-130" value="自动汇聚" style="html=1;dashed=0;whiteSpace=wrap;fillColor=#d5e8d4;strokeColor=#82b366;" parent="1" vertex="1">
          <mxGeometry x="970" y="-380" width="100" height="50" as="geometry" />
        </mxCell>
        <mxCell id="ydPv3QB8kfn3ZAmTUhdd-139" style="edgeStyle=orthogonalEdgeStyle;rounded=0;orthogonalLoop=1;jettySize=auto;html=1;exitX=0.5;exitY=1;exitDx=0;exitDy=0;entryX=0.5;entryY=0;entryDx=0;entryDy=0;" parent="1" source="ydPv3QB8kfn3ZAmTUhdd-133" target="ydPv3QB8kfn3ZAmTUhdd-135" edge="1">
          <mxGeometry relative="1" as="geometry" />
        </mxCell>
        <mxCell id="ydPv3QB8kfn3ZAmTUhdd-133" value="新增采集&lt;div&gt;数据清单&lt;/div&gt;" style="html=1;dashed=0;whiteSpace=wrap;fillColor=#d5e8d4;strokeColor=#ffffff;strokeWidth=1;" parent="1" vertex="1">
          <mxGeometry x="420" y="-300" width="100" height="50" as="geometry" />
        </mxCell>
        <mxCell id="ydPv3QB8kfn3ZAmTUhdd-142" style="edgeStyle=orthogonalEdgeStyle;rounded=1;orthogonalLoop=1;jettySize=auto;html=1;exitX=0.5;exitY=1;exitDx=0;exitDy=0;entryX=0.5;entryY=0;entryDx=0;entryDy=0;curved=0;" parent="1" source="ydPv3QB8kfn3ZAmTUhdd-135" target="ydPv3QB8kfn3ZAmTUhdd-141" edge="1">
          <mxGeometry relative="1" as="geometry" />
        </mxCell>
        <mxCell id="ydPv3QB8kfn3ZAmTUhdd-207" style="edgeStyle=orthogonalEdgeStyle;rounded=0;orthogonalLoop=1;jettySize=auto;html=1;exitX=1;exitY=0.5;exitDx=0;exitDy=0;entryX=0.5;entryY=0;entryDx=0;entryDy=0;curved=1;dashed=1;dashPattern=8 8;strokeColor=#32c356;entryPerimeter=0;" parent="1" source="ydPv3QB8kfn3ZAmTUhdd-135" target="DjpQKd9qRSs2f788Mcuo-5" edge="1">
          <mxGeometry relative="1" as="geometry" />
        </mxCell>
        <mxCell id="DjpQKd9qRSs2f788Mcuo-6" value="更新状态为采集中" style="edgeLabel;html=1;align=center;verticalAlign=middle;resizable=0;points=[];" parent="ydPv3QB8kfn3ZAmTUhdd-207" vertex="1" connectable="0">
          <mxGeometry x="-0.2946" y="-10" relative="1" as="geometry">
            <mxPoint as="offset" />
          </mxGeometry>
        </mxCell>
        <mxCell id="ydPv3QB8kfn3ZAmTUhdd-135" value="更新" style="shape=rhombus;html=1;dashed=0;whiteSpace=wrap;perimeter=rhombusPerimeter;fillColor=#f8cecc;strokeColor=#b85450;strokeWidth=1;" parent="1" vertex="1">
          <mxGeometry x="440" y="-225" width="60" height="50" as="geometry" />
        </mxCell>
        <mxCell id="ydPv3QB8kfn3ZAmTUhdd-178" style="edgeStyle=orthogonalEdgeStyle;rounded=0;orthogonalLoop=1;jettySize=auto;html=1;exitX=1;exitY=0.5;exitDx=0;exitDy=0;entryX=0.5;entryY=0;entryDx=0;entryDy=0;curved=1;dashed=1;entryPerimeter=0;" parent="1" source="ydPv3QB8kfn3ZAmTUhdd-141" target="DjpQKd9qRSs2f788Mcuo-5" edge="1">
          <mxGeometry relative="1" as="geometry" />
        </mxCell>
        <mxCell id="ydPv3QB8kfn3ZAmTUhdd-179" value="新增数据汇聚清单" style="edgeLabel;html=1;align=center;verticalAlign=middle;resizable=0;points=[];" parent="ydPv3QB8kfn3ZAmTUhdd-178" vertex="1" connectable="0">
          <mxGeometry x="-0.1672" y="-6" relative="1" as="geometry">
            <mxPoint x="125" y="12" as="offset" />
          </mxGeometry>
        </mxCell>
        <mxCell id="75hqEZYQXCR5T-KK69s9-1" style="edgeStyle=orthogonalEdgeStyle;rounded=0;orthogonalLoop=1;jettySize=auto;html=1;exitX=0;exitY=0.5;exitDx=0;exitDy=0;entryX=1;entryY=0.5;entryDx=0;entryDy=0;" edge="1" parent="1" source="ydPv3QB8kfn3ZAmTUhdd-141" target="ydPv3QB8kfn3ZAmTUhdd-211">
          <mxGeometry relative="1" as="geometry" />
        </mxCell>
        <mxCell id="75hqEZYQXCR5T-KK69s9-5" style="edgeStyle=orthogonalEdgeStyle;rounded=0;orthogonalLoop=1;jettySize=auto;html=1;exitX=0.5;exitY=1;exitDx=0;exitDy=0;entryX=0.5;entryY=0;entryDx=0;entryDy=0;" edge="1" parent="1" source="ydPv3QB8kfn3ZAmTUhdd-141" target="75hqEZYQXCR5T-KK69s9-2">
          <mxGeometry relative="1" as="geometry" />
        </mxCell>
        <mxCell id="ydPv3QB8kfn3ZAmTUhdd-141" value="获取逻辑处理类" style="html=1;dashed=0;whiteSpace=wrap;fillColor=#d5e8d4;strokeColor=#ffffff;strokeWidth=1;" parent="1" vertex="1">
          <mxGeometry x="420" y="-140" width="100" height="50" as="geometry" />
        </mxCell>
        <mxCell id="ydPv3QB8kfn3ZAmTUhdd-160" style="edgeStyle=orthogonalEdgeStyle;rounded=1;orthogonalLoop=1;jettySize=auto;html=1;exitX=0;exitY=0.5;exitDx=0;exitDy=0;entryX=0.5;entryY=0;entryDx=0;entryDy=0;curved=0;" parent="1" target="ydPv3QB8kfn3ZAmTUhdd-150" edge="1">
          <mxGeometry relative="1" as="geometry">
            <mxPoint x="445" y="35" as="sourcePoint" />
          </mxGeometry>
        </mxCell>
        <mxCell id="ydPv3QB8kfn3ZAmTUhdd-161" style="edgeStyle=orthogonalEdgeStyle;rounded=0;orthogonalLoop=1;jettySize=auto;html=1;exitX=0.5;exitY=1;exitDx=0;exitDy=0;entryX=0.5;entryY=0;entryDx=0;entryDy=0;" parent="1" target="ydPv3QB8kfn3ZAmTUhdd-151" edge="1">
          <mxGeometry relative="1" as="geometry">
            <mxPoint x="470" y="60" as="sourcePoint" />
          </mxGeometry>
        </mxCell>
        <mxCell id="ydPv3QB8kfn3ZAmTUhdd-162" style="edgeStyle=orthogonalEdgeStyle;rounded=1;orthogonalLoop=1;jettySize=auto;html=1;exitX=1;exitY=0.5;exitDx=0;exitDy=0;entryX=0.5;entryY=0;entryDx=0;entryDy=0;curved=0;" parent="1" target="ydPv3QB8kfn3ZAmTUhdd-152" edge="1">
          <mxGeometry relative="1" as="geometry">
            <mxPoint x="495" y="35" as="sourcePoint" />
          </mxGeometry>
        </mxCell>
        <mxCell id="ydPv3QB8kfn3ZAmTUhdd-148" value="同步" style="shape=ellipse;html=1;dashed=0;whiteSpace=wrap;perimeter=ellipsePerimeter;strokeColor=#ffffff;fillColor=#dae8fc;strokeWidth=2;" parent="1" vertex="1">
          <mxGeometry x="445" y="10" width="50" height="50" as="geometry" />
        </mxCell>
        <mxCell id="ydPv3QB8kfn3ZAmTUhdd-150" value="获取采集记录" style="html=1;dashed=0;whiteSpace=wrap;fillColor=#fff2cc;strokeColor=#d6b656;" parent="1" vertex="1">
          <mxGeometry x="300" y="80" width="100" height="50" as="geometry" />
        </mxCell>
        <mxCell id="ydPv3QB8kfn3ZAmTUhdd-151" value="获取日志" style="html=1;dashed=0;whiteSpace=wrap;fillColor=#fff2cc;strokeColor=#d6b656;" parent="1" vertex="1">
          <mxGeometry x="420" y="80" width="100" height="50" as="geometry" />
        </mxCell>
        <mxCell id="ydPv3QB8kfn3ZAmTUhdd-152" value="获取汇聚&lt;div&gt;数据请求信息&lt;/div&gt;" style="html=1;dashed=0;whiteSpace=wrap;fillColor=#f0a30a;fontColor=#000000;strokeColor=#BD7000;" parent="1" vertex="1">
          <mxGeometry x="540" y="80" width="100" height="50" as="geometry" />
        </mxCell>
        <mxCell id="ydPv3QB8kfn3ZAmTUhdd-172" style="edgeStyle=orthogonalEdgeStyle;rounded=0;orthogonalLoop=1;jettySize=auto;html=1;exitX=0.5;exitY=1;exitDx=0;exitDy=0;exitPerimeter=0;entryX=0.5;entryY=0;entryDx=0;entryDy=0;" parent="1" source="ydPv3QB8kfn3ZAmTUhdd-163" target="ydPv3QB8kfn3ZAmTUhdd-168" edge="1">
          <mxGeometry relative="1" as="geometry" />
        </mxCell>
        <mxCell id="ydPv3QB8kfn3ZAmTUhdd-163" value="源数据数据库连接信息" style="html=1;outlineConnect=0;whiteSpace=wrap;fillColor=#FFE0E0;shape=mxgraph.archimate3.application;appType=workPackage;archiType=rounded;" parent="1" vertex="1">
          <mxGeometry x="395" y="170" width="150" height="40" as="geometry" />
        </mxCell>
        <mxCell id="ydPv3QB8kfn3ZAmTUhdd-165" style="rounded=0;orthogonalLoop=1;jettySize=auto;html=1;exitX=0.246;exitY=1;exitDx=0;exitDy=0;entryX=1;entryY=0.5;entryDx=0;entryDy=0;entryPerimeter=0;dashed=1;edgeStyle=orthogonalEdgeStyle;exitPerimeter=0;" parent="1" source="ydPv3QB8kfn3ZAmTUhdd-164" target="ydPv3QB8kfn3ZAmTUhdd-163" edge="1">
          <mxGeometry relative="1" as="geometry" />
        </mxCell>
        <mxCell id="ydPv3QB8kfn3ZAmTUhdd-208" value="查询" style="edgeLabel;html=1;align=center;verticalAlign=middle;resizable=0;points=[];" parent="ydPv3QB8kfn3ZAmTUhdd-165" vertex="1" connectable="0">
          <mxGeometry x="0.2548" y="1" relative="1" as="geometry">
            <mxPoint as="offset" />
          </mxGeometry>
        </mxCell>
        <mxCell id="ydPv3QB8kfn3ZAmTUhdd-171" style="edgeStyle=orthogonalEdgeStyle;rounded=0;orthogonalLoop=1;jettySize=auto;html=1;exitX=1;exitY=0.5;exitDx=0;exitDy=0;entryX=0;entryY=0.5;entryDx=0;entryDy=0;shape=link;dashed=1;dashPattern=8 8;" parent="1" source="ydPv3QB8kfn3ZAmTUhdd-167" target="ydPv3QB8kfn3ZAmTUhdd-168" edge="1">
          <mxGeometry relative="1" as="geometry" />
        </mxCell>
        <mxCell id="ydPv3QB8kfn3ZAmTUhdd-167" value="字段匹配映射" style="rounded=0;whiteSpace=wrap;html=1;fillColor=#e1d5e7;strokeColor=#ffffff;" parent="1" vertex="1">
          <mxGeometry x="240" y="240" width="120" height="60" as="geometry" />
        </mxCell>
        <mxCell id="ydPv3QB8kfn3ZAmTUhdd-174" style="edgeStyle=orthogonalEdgeStyle;rounded=0;orthogonalLoop=1;jettySize=auto;html=1;exitX=0.5;exitY=1;exitDx=0;exitDy=0;entryX=0.5;entryY=0;entryDx=0;entryDy=0;" parent="1" source="ydPv3QB8kfn3ZAmTUhdd-168" target="ydPv3QB8kfn3ZAmTUhdd-173" edge="1">
          <mxGeometry relative="1" as="geometry" />
        </mxCell>
        <mxCell id="ydPv3QB8kfn3ZAmTUhdd-168" value="创建PG临时表" style="rounded=0;whiteSpace=wrap;html=1;fillColor=#dae8fc;strokeColor=#6c8ebf;" parent="1" vertex="1">
          <mxGeometry x="410" y="240" width="120" height="60" as="geometry" />
        </mxCell>
        <mxCell id="ydPv3QB8kfn3ZAmTUhdd-186" style="edgeStyle=orthogonalEdgeStyle;rounded=1;orthogonalLoop=1;jettySize=auto;html=1;exitX=1;exitY=0.75;exitDx=0;exitDy=0;entryX=0.25;entryY=0;entryDx=0;entryDy=0;curved=0;" parent="1" source="ydPv3QB8kfn3ZAmTUhdd-173" target="ydPv3QB8kfn3ZAmTUhdd-184" edge="1">
          <mxGeometry relative="1" as="geometry" />
        </mxCell>
        <mxCell id="ydPv3QB8kfn3ZAmTUhdd-187" value="异常" style="edgeLabel;html=1;align=center;verticalAlign=middle;resizable=0;points=[];" parent="ydPv3QB8kfn3ZAmTUhdd-186" vertex="1" connectable="0">
          <mxGeometry x="-0.1701" y="1" relative="1" as="geometry">
            <mxPoint as="offset" />
          </mxGeometry>
        </mxCell>
        <mxCell id="ydPv3QB8kfn3ZAmTUhdd-173" value="处理数据并插入" style="rounded=0;whiteSpace=wrap;html=1;fillColor=#dae8fc;strokeColor=#6c8ebf;" parent="1" vertex="1">
          <mxGeometry x="410" y="330" width="120" height="60" as="geometry" />
        </mxCell>
        <mxCell id="ydPv3QB8kfn3ZAmTUhdd-175" style="edgeStyle=orthogonalEdgeStyle;rounded=1;orthogonalLoop=1;jettySize=auto;html=1;exitX=0.5;exitY=1;exitDx=0;exitDy=0;entryX=0.5;entryY=0;entryDx=0;entryDy=0;entryPerimeter=0;curved=0;" parent="1" source="ydPv3QB8kfn3ZAmTUhdd-152" target="ydPv3QB8kfn3ZAmTUhdd-163" edge="1">
          <mxGeometry relative="1" as="geometry" />
        </mxCell>
        <mxCell id="ydPv3QB8kfn3ZAmTUhdd-176" value="" style="edgeStyle=orthogonalEdgeStyle;rounded=0;orthogonalLoop=1;jettySize=auto;html=1;exitX=0.75;exitY=1;exitDx=0;exitDy=0;entryX=0.5;entryY=0;entryDx=0;entryDy=0;curved=1;dashed=1;entryPerimeter=0;" parent="1" source="ydPv3QB8kfn3ZAmTUhdd-119" target="DjpQKd9qRSs2f788Mcuo-5" edge="1">
          <mxGeometry relative="1" as="geometry">
            <mxPoint x="810" y="-10" as="targetPoint" />
            <mxPoint x="735" y="-400" as="sourcePoint" />
          </mxGeometry>
        </mxCell>
        <mxCell id="ydPv3QB8kfn3ZAmTUhdd-177" value="新增" style="edgeLabel;html=1;align=center;verticalAlign=middle;resizable=0;points=[];" parent="ydPv3QB8kfn3ZAmTUhdd-176" vertex="1" connectable="0">
          <mxGeometry x="-0.0554" y="3" relative="1" as="geometry">
            <mxPoint as="offset" />
          </mxGeometry>
        </mxCell>
        <mxCell id="ydPv3QB8kfn3ZAmTUhdd-181" style="edgeStyle=orthogonalEdgeStyle;rounded=1;orthogonalLoop=1;jettySize=auto;html=1;exitX=1;exitY=0.25;exitDx=0;exitDy=0;entryX=0.5;entryY=1;entryDx=0;entryDy=0;curved=0;dashed=1;" parent="1" source="ydPv3QB8kfn3ZAmTUhdd-173" target="ydPv3QB8kfn3ZAmTUhdd-164" edge="1">
          <mxGeometry relative="1" as="geometry" />
        </mxCell>
        <mxCell id="ydPv3QB8kfn3ZAmTUhdd-182" value="正常" style="edgeLabel;html=1;align=center;verticalAlign=middle;resizable=0;points=[];" parent="ydPv3QB8kfn3ZAmTUhdd-181" vertex="1" connectable="0">
          <mxGeometry x="0.5152" relative="1" as="geometry">
            <mxPoint as="offset" />
          </mxGeometry>
        </mxCell>
        <mxCell id="ydPv3QB8kfn3ZAmTUhdd-184" value="结束" style="rounded=1;whiteSpace=wrap;html=1;fillColor=#fa6800;fontColor=#000000;strokeColor=#ffa3a3;fontSize=19;glass=0;shadow=0;sketch=1;curveFitting=1;jiggle=2;" parent="1" vertex="1">
          <mxGeometry x="710" y="470" width="120" height="60" as="geometry" />
        </mxCell>
        <mxCell id="ydPv3QB8kfn3ZAmTUhdd-188" value="" style="edgeStyle=isometricEdgeStyle;endArrow=none;html=1;rounded=0;entryX=0;entryY=0.5;entryDx=0;entryDy=0;exitX=0.5;exitY=0;exitDx=0;exitDy=0;" parent="1" source="ydPv3QB8kfn3ZAmTUhdd-189" target="ydPv3QB8kfn3ZAmTUhdd-173" edge="1">
          <mxGeometry width="50" height="100" relative="1" as="geometry">
            <mxPoint x="-70.80000000000001" y="390" as="sourcePoint" />
            <mxPoint x="-20.80000000000001" y="290" as="targetPoint" />
          </mxGeometry>
        </mxCell>
        <mxCell id="ydPv3QB8kfn3ZAmTUhdd-189" value="数据处理流程" style="swimlane;startSize=20;horizontal=1;containerType=tree;fillColor=#fad7ac;strokeColor=#b46504;" parent="1" vertex="1">
          <mxGeometry x="-70" y="350" width="360" height="360" as="geometry">
            <mxRectangle x="-80" y="370" width="110" height="30" as="alternateBounds" />
          </mxGeometry>
        </mxCell>
        <mxCell id="ydPv3QB8kfn3ZAmTUhdd-190" value="" style="edgeStyle=elbowEdgeStyle;elbow=vertical;sourcePerimeterSpacing=0;targetPerimeterSpacing=0;startArrow=none;endArrow=none;rounded=0;curved=0;" parent="ydPv3QB8kfn3ZAmTUhdd-189" source="ydPv3QB8kfn3ZAmTUhdd-191" target="ydPv3QB8kfn3ZAmTUhdd-194" edge="1">
          <mxGeometry relative="1" as="geometry" />
        </mxCell>
        <mxCell id="ydPv3QB8kfn3ZAmTUhdd-191" value="内存容器" style="whiteSpace=wrap;html=1;treeFolding=1;treeMoving=1;newEdgeStyle={&quot;edgeStyle&quot;:&quot;elbowEdgeStyle&quot;,&quot;startArrow&quot;:&quot;none&quot;,&quot;endArrow&quot;:&quot;none&quot;};fillColor=#fa6800;fontColor=#000000;strokeColor=#C73500;" parent="ydPv3QB8kfn3ZAmTUhdd-189" vertex="1">
          <mxGeometry x="140" y="40" width="120" height="40" as="geometry" />
        </mxCell>
        <mxCell id="ydPv3QB8kfn3ZAmTUhdd-192" value="处理对应关系、数据类型问题" style="whiteSpace=wrap;html=1;treeFolding=1;treeMoving=1;newEdgeStyle={&quot;edgeStyle&quot;:&quot;elbowEdgeStyle&quot;,&quot;startArrow&quot;:&quot;none&quot;,&quot;endArrow&quot;:&quot;none&quot;};fillColor=#fff2cc;gradientColor=#ffd966;strokeColor=#d6b656;" parent="ydPv3QB8kfn3ZAmTUhdd-189" vertex="1">
          <mxGeometry x="120" y="140" width="160" height="40" as="geometry" />
        </mxCell>
        <mxCell id="ydPv3QB8kfn3ZAmTUhdd-193" value="" style="edgeStyle=elbowEdgeStyle;elbow=vertical;sourcePerimeterSpacing=0;targetPerimeterSpacing=0;startArrow=none;endArrow=none;rounded=0;curved=0;" parent="ydPv3QB8kfn3ZAmTUhdd-189" source="ydPv3QB8kfn3ZAmTUhdd-194" target="ydPv3QB8kfn3ZAmTUhdd-192" edge="1">
          <mxGeometry relative="1" as="geometry">
            <mxPoint x="-200" y="1220" as="sourcePoint" />
          </mxGeometry>
        </mxCell>
        <mxCell id="ydPv3QB8kfn3ZAmTUhdd-194" value="获取字段名称" style="whiteSpace=wrap;html=1;treeFolding=1;treeMoving=1;newEdgeStyle={&quot;edgeStyle&quot;:&quot;elbowEdgeStyle&quot;,&quot;startArrow&quot;:&quot;none&quot;,&quot;endArrow&quot;:&quot;none&quot;};fillColor=#fff2cc;gradientColor=#ffd966;strokeColor=#d6b656;" parent="ydPv3QB8kfn3ZAmTUhdd-189" vertex="1">
          <mxGeometry x="140" y="90" width="120" height="40" as="geometry" />
        </mxCell>
        <mxCell id="ydPv3QB8kfn3ZAmTUhdd-195" value="" style="edgeStyle=elbowEdgeStyle;elbow=vertical;sourcePerimeterSpacing=0;targetPerimeterSpacing=0;startArrow=none;endArrow=none;rounded=0;curved=0;" parent="ydPv3QB8kfn3ZAmTUhdd-189" source="ydPv3QB8kfn3ZAmTUhdd-192" target="ydPv3QB8kfn3ZAmTUhdd-196" edge="1">
          <mxGeometry relative="1" as="geometry">
            <mxPoint x="-200" y="1270" as="sourcePoint" />
          </mxGeometry>
        </mxCell>
        <mxCell id="ydPv3QB8kfn3ZAmTUhdd-197" style="edgeStyle=elbowEdgeStyle;rounded=0;orthogonalLoop=1;jettySize=auto;html=1;startArrow=none;endArrow=blockThin;exitX=1;exitY=0.5;exitDx=0;exitDy=0;entryX=1;entryY=0.5;entryDx=0;entryDy=0;dashed=1;dashPattern=1 4;endFill=0;" parent="ydPv3QB8kfn3ZAmTUhdd-189" source="ydPv3QB8kfn3ZAmTUhdd-196" target="ydPv3QB8kfn3ZAmTUhdd-191" edge="1">
          <mxGeometry relative="1" as="geometry">
            <Array as="points">
              <mxPoint x="320" y="150" />
            </Array>
          </mxGeometry>
        </mxCell>
        <mxCell id="ydPv3QB8kfn3ZAmTUhdd-196" value="组装参数保存至容器中" style="whiteSpace=wrap;html=1;treeFolding=1;treeMoving=1;newEdgeStyle={&quot;edgeStyle&quot;:&quot;elbowEdgeStyle&quot;,&quot;startArrow&quot;:&quot;none&quot;,&quot;endArrow&quot;:&quot;none&quot;};fillColor=#fff2cc;gradientColor=#ffd966;strokeColor=#d6b656;" parent="ydPv3QB8kfn3ZAmTUhdd-189" vertex="1">
          <mxGeometry x="120" y="190" width="160" height="40" as="geometry" />
        </mxCell>
        <mxCell id="ydPv3QB8kfn3ZAmTUhdd-198" value="" style="edgeStyle=elbowEdgeStyle;elbow=vertical;sourcePerimeterSpacing=0;targetPerimeterSpacing=0;startArrow=none;endArrow=none;rounded=0;curved=0;" parent="ydPv3QB8kfn3ZAmTUhdd-189" source="ydPv3QB8kfn3ZAmTUhdd-196" target="ydPv3QB8kfn3ZAmTUhdd-199" edge="1">
          <mxGeometry relative="1" as="geometry">
            <mxPoint x="-200" y="1320" as="sourcePoint" />
          </mxGeometry>
        </mxCell>
        <mxCell id="ydPv3QB8kfn3ZAmTUhdd-199" value="容器满、执行插入" style="whiteSpace=wrap;html=1;treeFolding=1;treeMoving=1;newEdgeStyle={&quot;edgeStyle&quot;:&quot;elbowEdgeStyle&quot;,&quot;startArrow&quot;:&quot;none&quot;,&quot;endArrow&quot;:&quot;none&quot;};fillColor=#fff2cc;gradientColor=#ffd966;strokeColor=#d6b656;" parent="ydPv3QB8kfn3ZAmTUhdd-189" vertex="1">
          <mxGeometry x="130" y="240" width="140" height="40" as="geometry" />
        </mxCell>
        <mxCell id="ydPv3QB8kfn3ZAmTUhdd-200" value="" style="edgeStyle=elbowEdgeStyle;elbow=vertical;sourcePerimeterSpacing=0;targetPerimeterSpacing=0;startArrow=none;endArrow=none;rounded=0;curved=0;" parent="ydPv3QB8kfn3ZAmTUhdd-189" source="ydPv3QB8kfn3ZAmTUhdd-199" target="ydPv3QB8kfn3ZAmTUhdd-201" edge="1">
          <mxGeometry relative="1" as="geometry">
            <mxPoint x="-200" y="1350" as="sourcePoint" />
          </mxGeometry>
        </mxCell>
        <mxCell id="ydPv3QB8kfn3ZAmTUhdd-202" style="edgeStyle=elbowEdgeStyle;rounded=0;orthogonalLoop=1;jettySize=auto;html=1;startArrow=none;endArrow=async;exitX=0;exitY=0.5;exitDx=0;exitDy=0;entryX=0;entryY=0.5;entryDx=0;entryDy=0;strokeColor=default;endFill=1;" parent="ydPv3QB8kfn3ZAmTUhdd-189" source="ydPv3QB8kfn3ZAmTUhdd-201" target="ydPv3QB8kfn3ZAmTUhdd-191" edge="1">
          <mxGeometry relative="1" as="geometry">
            <Array as="points">
              <mxPoint x="60" y="190" />
            </Array>
          </mxGeometry>
        </mxCell>
        <mxCell id="ydPv3QB8kfn3ZAmTUhdd-203" value="如果还有数据" style="edgeLabel;html=1;align=center;verticalAlign=middle;resizable=0;points=[];" parent="ydPv3QB8kfn3ZAmTUhdd-202" vertex="1" connectable="0">
          <mxGeometry x="0.0075" y="1" relative="1" as="geometry">
            <mxPoint as="offset" />
          </mxGeometry>
        </mxCell>
        <mxCell id="ydPv3QB8kfn3ZAmTUhdd-201" value="清空容器" style="whiteSpace=wrap;html=1;treeFolding=1;treeMoving=1;newEdgeStyle={&quot;edgeStyle&quot;:&quot;elbowEdgeStyle&quot;,&quot;startArrow&quot;:&quot;none&quot;,&quot;endArrow&quot;:&quot;none&quot;};fillColor=#d5e8d4;gradientColor=#97d077;strokeColor=#82b366;" parent="ydPv3QB8kfn3ZAmTUhdd-189" vertex="1">
          <mxGeometry x="155" y="290" width="90" height="40" as="geometry" />
        </mxCell>
        <mxCell id="ydPv3QB8kfn3ZAmTUhdd-211" value="&lt;p style=&quot;margin:0px;margin-top:6px;text-align:center;&quot;&gt;&lt;b&gt;处理类&lt;/b&gt;&lt;/p&gt;&lt;hr size=&quot;1&quot; style=&quot;border-style:solid;&quot;&gt;&lt;p style=&quot;margin:0px;margin-left:8px;&quot;&gt;+ ApiDataDeal&lt;br&gt;+ DbDataDeal&lt;/p&gt;&lt;p style=&quot;margin:0px;margin-left:8px;&quot;&gt;+ FileDataDeal&lt;/p&gt;&lt;p style=&quot;margin:0px;margin-left:8px;&quot;&gt;+ OnlineDataDeal&lt;/p&gt;" style="align=left;overflow=fill;html=1;dropTarget=0;whiteSpace=wrap;fillColor=#d0cee2;strokeColor=#ffffff;strokeWidth=0;rounded=1;" parent="1" vertex="1">
          <mxGeometry x="170" y="-165" width="180" height="100" as="geometry" />
        </mxCell>
        <mxCell id="ydPv3QB8kfn3ZAmTUhdd-212" value="" style="shape=component;jettyWidth=8;jettyHeight=4;" parent="ydPv3QB8kfn3ZAmTUhdd-211" vertex="1">
          <mxGeometry x="1" width="20" height="20" relative="1" as="geometry">
            <mxPoint x="-30" y="5" as="offset" />
          </mxGeometry>
        </mxCell>
        <mxCell id="ydPv3QB8kfn3ZAmTUhdd-215" style="rounded=0;orthogonalLoop=1;jettySize=auto;html=1;exitX=0;exitY=0.5;exitDx=0;exitDy=0;entryX=1;entryY=0.5;entryDx=0;entryDy=0;edgeStyle=isometricEdgeStyle;dashed=1;dashPattern=1 4;" parent="1" source="ydPv3QB8kfn3ZAmTUhdd-164" target="ydPv3QB8kfn3ZAmTUhdd-150" edge="1">
          <mxGeometry relative="1" as="geometry">
            <Array as="points">
              <mxPoint x="570" y="40" />
            </Array>
            <mxPoint x="270" y="51" as="sourcePoint" />
          </mxGeometry>
        </mxCell>
        <mxCell id="DjpQKd9qRSs2f788Mcuo-5" value="数据汇集Table&lt;div&gt;采集清单Table&lt;/div&gt;&lt;div&gt;采集来源Table&lt;/div&gt;" style="strokeWidth=2;html=1;shape=mxgraph.flowchart.direct_data;whiteSpace=wrap;fillColor=#1ba1e2;fontColor=#ffffff;strokeColor=#006EAF;" parent="1" vertex="1">
          <mxGeometry x="730" y="-7.5" width="140" height="60" as="geometry" />
        </mxCell>
        <mxCell id="75hqEZYQXCR5T-KK69s9-4" style="edgeStyle=orthogonalEdgeStyle;rounded=0;orthogonalLoop=1;jettySize=auto;html=1;exitX=0.5;exitY=1;exitDx=0;exitDy=0;entryX=0.5;entryY=0;entryDx=0;entryDy=0;" edge="1" parent="1" source="75hqEZYQXCR5T-KK69s9-2" target="ydPv3QB8kfn3ZAmTUhdd-148">
          <mxGeometry relative="1" as="geometry" />
        </mxCell>
        <mxCell id="75hqEZYQXCR5T-KK69s9-2" value="新增采集&lt;div&gt;来源记录&lt;/div&gt;" style="html=1;dashed=0;whiteSpace=wrap;fillColor=#d5e8d4;strokeColor=#ffffff;strokeWidth=1;" vertex="1" parent="1">
          <mxGeometry x="420" y="-57.5" width="100" height="50" as="geometry" />
        </mxCell>
        <mxCell id="75hqEZYQXCR5T-KK69s9-13" style="edgeStyle=orthogonalEdgeStyle;rounded=0;orthogonalLoop=1;jettySize=auto;html=1;exitX=0.5;exitY=1;exitDx=0;exitDy=0;entryX=0.5;entryY=0;entryDx=0;entryDy=0;" edge="1" parent="1" source="75hqEZYQXCR5T-KK69s9-7" target="75hqEZYQXCR5T-KK69s9-9">
          <mxGeometry relative="1" as="geometry" />
        </mxCell>
        <mxCell id="75hqEZYQXCR5T-KK69s9-7" value="新增自动采集&lt;div&gt;数据清单&lt;/div&gt;" style="html=1;dashed=0;whiteSpace=wrap;fillColor=#d5e8d4;strokeColor=#ffffff;strokeWidth=1;" vertex="1" parent="1">
          <mxGeometry x="970" y="-300" width="100" height="50" as="geometry" />
        </mxCell>
        <mxCell id="75hqEZYQXCR5T-KK69s9-20" style="edgeStyle=orthogonalEdgeStyle;rounded=0;orthogonalLoop=1;jettySize=auto;html=1;exitX=0.5;exitY=1;exitDx=0;exitDy=0;entryX=0.5;entryY=0;entryDx=0;entryDy=0;" edge="1" parent="1" source="75hqEZYQXCR5T-KK69s9-9" target="75hqEZYQXCR5T-KK69s9-18">
          <mxGeometry relative="1" as="geometry" />
        </mxCell>
        <mxCell id="75hqEZYQXCR5T-KK69s9-9" value="调用API创建表" style="html=1;dashed=0;whiteSpace=wrap;fillColor=#d5e8d4;strokeColor=#ffffff;strokeWidth=1;" vertex="1" parent="1">
          <mxGeometry x="970" y="-230" width="100" height="50" as="geometry" />
        </mxCell>
        <mxCell id="75hqEZYQXCR5T-KK69s9-15" style="edgeStyle=orthogonalEdgeStyle;rounded=0;orthogonalLoop=1;jettySize=auto;html=1;exitX=0.5;exitY=1;exitDx=0;exitDy=0;entryX=0.5;entryY=0;entryDx=0;entryDy=0;" edge="1" parent="1" source="75hqEZYQXCR5T-KK69s9-10" target="75hqEZYQXCR5T-KK69s9-11">
          <mxGeometry relative="1" as="geometry" />
        </mxCell>
        <mxCell id="75hqEZYQXCR5T-KK69s9-10" value="创建临时表" style="html=1;dashed=0;whiteSpace=wrap;fillColor=#d5e8d4;strokeColor=#ffffff;strokeWidth=1;" vertex="1" parent="1">
          <mxGeometry x="970" y="65" width="100" height="50" as="geometry" />
        </mxCell>
        <mxCell id="75hqEZYQXCR5T-KK69s9-16" style="edgeStyle=orthogonalEdgeStyle;rounded=0;orthogonalLoop=1;jettySize=auto;html=1;exitX=0.5;exitY=1;exitDx=0;exitDy=0;entryX=0.5;entryY=0;entryDx=0;entryDy=0;" edge="1" parent="1" source="75hqEZYQXCR5T-KK69s9-11" target="75hqEZYQXCR5T-KK69s9-12">
          <mxGeometry relative="1" as="geometry" />
        </mxCell>
        <mxCell id="75hqEZYQXCR5T-KK69s9-11" value="创建正式表/字段" style="html=1;dashed=0;whiteSpace=wrap;fillColor=#d5e8d4;strokeColor=#ffffff;strokeWidth=1;" vertex="1" parent="1">
          <mxGeometry x="970" y="135" width="100" height="50" as="geometry" />
        </mxCell>
        <mxCell id="75hqEZYQXCR5T-KK69s9-17" style="edgeStyle=orthogonalEdgeStyle;rounded=1;orthogonalLoop=1;jettySize=auto;html=1;exitX=0.5;exitY=1;exitDx=0;exitDy=0;entryX=0.75;entryY=0;entryDx=0;entryDy=0;curved=0;" edge="1" parent="1" source="75hqEZYQXCR5T-KK69s9-12" target="ydPv3QB8kfn3ZAmTUhdd-184">
          <mxGeometry relative="1" as="geometry" />
        </mxCell>
        <mxCell id="75hqEZYQXCR5T-KK69s9-12" value="创建索引" style="html=1;dashed=0;whiteSpace=wrap;fillColor=#d5e8d4;strokeColor=#ffffff;strokeWidth=1;" vertex="1" parent="1">
          <mxGeometry x="970" y="205" width="100" height="50" as="geometry" />
        </mxCell>
        <mxCell id="75hqEZYQXCR5T-KK69s9-22" style="edgeStyle=orthogonalEdgeStyle;rounded=0;orthogonalLoop=1;jettySize=auto;html=1;exitX=0.5;exitY=1;exitDx=0;exitDy=0;entryX=0.5;entryY=0;entryDx=0;entryDy=0;" edge="1" parent="1" source="75hqEZYQXCR5T-KK69s9-18" target="75hqEZYQXCR5T-KK69s9-19">
          <mxGeometry relative="1" as="geometry" />
        </mxCell>
        <mxCell id="75hqEZYQXCR5T-KK69s9-18" value="获取API抓取请求记录" style="html=1;dashed=0;whiteSpace=wrap;fillColor=#d5e8d4;strokeColor=#ffffff;strokeWidth=1;" vertex="1" parent="1">
          <mxGeometry x="970" y="-155" width="100" height="50" as="geometry" />
        </mxCell>
        <mxCell id="75hqEZYQXCR5T-KK69s9-27" style="edgeStyle=orthogonalEdgeStyle;rounded=0;orthogonalLoop=1;jettySize=auto;html=1;exitX=0.5;exitY=1;exitDx=0;exitDy=0;entryX=0.5;entryY=0;entryDx=0;entryDy=0;" edge="1" parent="1" source="75hqEZYQXCR5T-KK69s9-19" target="75hqEZYQXCR5T-KK69s9-23">
          <mxGeometry relative="1" as="geometry" />
        </mxCell>
        <mxCell id="75hqEZYQXCR5T-KK69s9-19" value="获取表模板信息" style="html=1;dashed=0;whiteSpace=wrap;fillColor=#d5e8d4;strokeColor=#ffffff;strokeWidth=1;" vertex="1" parent="1">
          <mxGeometry x="970" y="-80" width="100" height="50" as="geometry" />
        </mxCell>
        <mxCell id="75hqEZYQXCR5T-KK69s9-24" style="edgeStyle=orthogonalEdgeStyle;rounded=0;orthogonalLoop=1;jettySize=auto;html=1;exitX=0.5;exitY=1;exitDx=0;exitDy=0;entryX=0.5;entryY=0;entryDx=0;entryDy=0;" edge="1" parent="1" source="75hqEZYQXCR5T-KK69s9-23" target="75hqEZYQXCR5T-KK69s9-10">
          <mxGeometry relative="1" as="geometry" />
        </mxCell>
        <mxCell id="75hqEZYQXCR5T-KK69s9-25" value="否" style="edgeLabel;html=1;align=center;verticalAlign=middle;resizable=0;points=[];" vertex="1" connectable="0" parent="75hqEZYQXCR5T-KK69s9-24">
          <mxGeometry x="-0.3778" relative="1" as="geometry">
            <mxPoint as="offset" />
          </mxGeometry>
        </mxCell>
        <mxCell id="75hqEZYQXCR5T-KK69s9-30" style="edgeStyle=orthogonalEdgeStyle;rounded=0;orthogonalLoop=1;jettySize=auto;html=1;exitX=1;exitY=0.5;exitDx=0;exitDy=0;entryX=0;entryY=0.5;entryDx=0;entryDy=0;" edge="1" parent="1" source="75hqEZYQXCR5T-KK69s9-23" target="75hqEZYQXCR5T-KK69s9-29">
          <mxGeometry relative="1" as="geometry" />
        </mxCell>
        <mxCell id="75hqEZYQXCR5T-KK69s9-31" value="是" style="edgeLabel;html=1;align=center;verticalAlign=middle;resizable=0;points=[];" vertex="1" connectable="0" parent="75hqEZYQXCR5T-KK69s9-30">
          <mxGeometry x="-0.1619" y="-2" relative="1" as="geometry">
            <mxPoint as="offset" />
          </mxGeometry>
        </mxCell>
        <mxCell id="75hqEZYQXCR5T-KK69s9-23" value="表重复" style="shape=rhombus;html=1;dashed=0;whiteSpace=wrap;perimeter=rhombusPerimeter;fillColor=#f8cecc;strokeColor=#b85450;" vertex="1" parent="1">
          <mxGeometry x="975" y="-15" width="90" height="50" as="geometry" />
        </mxCell>
        <mxCell id="75hqEZYQXCR5T-KK69s9-32" style="edgeStyle=orthogonalEdgeStyle;rounded=0;orthogonalLoop=1;jettySize=auto;html=1;exitX=0.5;exitY=0;exitDx=0;exitDy=0;entryX=1;entryY=0.5;entryDx=0;entryDy=0;" edge="1" parent="1" source="75hqEZYQXCR5T-KK69s9-29" target="75hqEZYQXCR5T-KK69s9-19">
          <mxGeometry relative="1" as="geometry" />
        </mxCell>
        <mxCell id="75hqEZYQXCR5T-KK69s9-29" value="更新临时数据表" style="html=1;dashed=0;whiteSpace=wrap;fillColor=#d5e8d4;strokeColor=#ffffff;strokeWidth=1;" vertex="1" parent="1">
          <mxGeometry x="1100" y="-15" width="100" height="50" as="geometry" />
        </mxCell>
        <mxCell id="75hqEZYQXCR5T-KK69s9-34" value="数据汇聚新增流程" style="rounded=0;whiteSpace=wrap;html=1;fontSize=16;align=center;fontStyle=0;strokeColor=#e1d5e7;" vertex="1" parent="1">
          <mxGeometry x="320" y="-740" width="160" height="40" as="geometry" />
        </mxCell>
        <mxCell id="75hqEZYQXCR5T-KK69s9-38" style="edgeStyle=orthogonalEdgeStyle;rounded=0;orthogonalLoop=1;jettySize=auto;html=1;exitX=0.5;exitY=1;exitDx=0;exitDy=0;entryX=0;entryY=0.5;entryDx=0;entryDy=0;" edge="1" parent="1" source="75hqEZYQXCR5T-KK69s9-35" target="ydPv3QB8kfn3ZAmTUhdd-115">
          <mxGeometry relative="1" as="geometry" />
        </mxCell>
        <mxCell id="75hqEZYQXCR5T-KK69s9-35" value="API接口" style="rounded=0;whiteSpace=wrap;html=1;fillColor=#dae8fc;strokeColor=#6c8ebf;" vertex="1" parent="1">
          <mxGeometry x="390" y="-620" width="120" height="60" as="geometry" />
        </mxCell>
      </root>
    </mxGraphModel>
  </diagram>
</mxfile>
